<svg xmlns="http://www.w3.org/2000/svg" viewBox="0 0 256 256">
  <rect width="256" height="256" fill="white"/>
  <path d="M128 32L128 32C128 32 96 64 96 112L96 160L80 176L80 192L96 192L96 208L112 208L112 192L160 192L160 160C160 112 192 64 192 64L192 64C192 64 160 80 128 80C96 80 64 64 64 64L64 64C64 64 96 80 128 80L128 32Z" fill="#7C3AED"/>
  <path d="M128 32C128 32 144 48 144 80C144 96 136 104 128 104C120 104 112 96 112 80C112 48 128 32 128 32Z" fill="#7C3AED"/>
  <circle cx="136" cy="120" r="8" fill="white"/>
  <path d="M64 192L48 208L48 224L64 224L80 208L64 192Z" fill="#7C3AED"/>
  <path d="M192 192L208 208L208 224L192 224L176 208L192 192Z" fill="#7C3AED"/>
</svg>